HIERARCHY
ROOT RootJoint
{
    OFFSET   0.000000   0.000000   0.000000
    CHANNELS 6 Xposition Yposition Zposition Xrotation Yrotation Zrotation
    JOINT pelvis_lowerback
    {
        OFFSET   0.000000   0.093605   0.000000
        CHANNELS 3 Xrotation Yrotation Zrotation
        JOINT lowerback_torso
        {
            OFFSET   0.000000   0.100000   0.000000
            CHANNELS 3 Xrotation Yrotation Zrotation
            JOINT torso_head
            {
                OFFSET   0.000000   0.282350   0.000000
                CHANNELS 3 Xrotation Yrotation Zrotation
                End Site
                {
                    OFFSET   0.000000   0.192650   0.000000
                }
            }
            JOINT rTorso_Clavicle
            {
                OFFSET  -0.001000   0.157500   0.000000
                CHANNELS 3 Xrotation Yrotation Zrotation
                JOINT rShoulder
                {
                    OFFSET  -0.117647   0.000000   0.000000
                    CHANNELS 3 Xrotation Yrotation Zrotation
                    JOINT rElbow
                    {
                        OFFSET  -0.245000   0.000000   0.000000
                        CHANNELS 3 Xrotation Yrotation Zrotation
                        JOINT rWrist
                        {
                            OFFSET  -0.240000   0.000000   0.000000
                            CHANNELS 3 Xrotation Yrotation Zrotation
                            End Site
                            {
                                OFFSET  -0.116353  -0.002500   0.000000
                            }
                        }
                    }
                }
            }
            JOINT lTorso_Clavicle
            {
                OFFSET   0.001000   0.157500   0.000000
                CHANNELS 3 Xrotation Yrotation Zrotation
                JOINT lShoulder
                {
                    OFFSET   0.117647   0.000000   0.000000
                    CHANNELS 3 Xrotation Yrotation Zrotation
                    JOINT lElbow
                    {
                        OFFSET   0.245000   0.000000   0.000000
                        CHANNELS 3 Xrotation Yrotation Zrotation
                        JOINT lWrist
                        {
                            OFFSET   0.240000   0.000000   0.000000
                            CHANNELS 3 Xrotation Yrotation Zrotation
                            End Site
                            {
                                OFFSET   0.116353  -0.002500   0.000000
                            }
                        }
                    }
                }
            }
        }
    }
    JOINT rHip
    {
        OFFSET  -0.100000  -0.051395   0.000000
        CHANNELS 3 Xrotation Yrotation Zrotation
        JOINT rKnee
        {
            OFFSET   0.000000  -0.410000   0.000000
            CHANNELS 3 Xrotation Yrotation Zrotation
            JOINT rAnkle
            {
                OFFSET   0.000000  -0.390000   0.000000
                CHANNELS 3 Xrotation Yrotation Zrotation
                JOINT rToeJoint
                {
                    OFFSET   0.000000  -0.050000   0.130000
                    CHANNELS 3 Xrotation Yrotation Zrotation
                    End Site
                    {
                        OFFSET  -0.010000   0.002000   0.060000
                    }
                }
            }
        }
    }
    JOINT lHip
    {
        OFFSET   0.100000  -0.051395   0.000000
        CHANNELS 3 Xrotation Yrotation Zrotation
        JOINT lKnee
        {
            OFFSET   0.000000  -0.410000   0.000000
            CHANNELS 3 Xrotation Yrotation Zrotation
            JOINT lAnkle
            {
                OFFSET   0.000000  -0.390000   0.000000
                CHANNELS 3 Xrotation Yrotation Zrotation
                JOINT lToeJoint
                {
                    OFFSET   0.000000  -0.050000   0.130000
                    CHANNELS 3 Xrotation Yrotation Zrotation
                    End Site
                    {
                        OFFSET   0.010000   0.002000   0.060000
                    }
                }
            }
        }
    }
}
MOTION
Frames: 12
Frame Time:   0.008333
 -2.376719   0.925631   3.975860   0.000000   0.000000   0.000000   0.000000   0.000000   0.000000   0.000000   0.000000   0.000000   0.000000   0.000000   0.000000   0.000000   0.000000   0.000000   0.000000   0.000000   0.000000   0.000000   0.000000   0.000000   0.000000   0.000000   0.000000   0.000000   0.000000   0.000000   0.000000   0.000000   0.000000   0.000000   0.000000   0.000000   0.000000   0.000000   0.000000   0.000000   0.000000   0.000000   0.000000   0.000000   0.000000   0.000000   0.000000   0.000000   0.000000   0.000000   0.000000   0.000000   0.000000   0.000000   0.000000   0.000000   0.000000   0.000000   0.000000   0.000000   0.000000   0.000000   0.000000
 -2.376662   0.925343   3.973653  -0.682021   0.616210  -0.226492   1.292501  -0.149499   0.218212  -0.186132  -0.201871   0.201604   0.029724  -0.354308   0.021381  -0.570085  -0.239996  -0.334871  -2.235337  -0.382687   1.233532   0.031204   3.510066   0.072143  -0.031545  -1.833807  -1.361779  -0.565490   0.157409   0.123433  -0.287888  -0.795574  -1.803471   0.043490  -3.361755  -0.011076   0.002584   2.198222   1.458692  -0.399626  -0.883155  -0.029115   2.731955   0.005777  -0.006522  -1.768027  -0.093553   0.210011  -0.235685  -0.000089   0.000734  -0.487742  -0.042385   0.545898   3.235724  -0.008535   0.016596  -2.532761   0.195879  -0.092489   0.262762  -0.000542   0.001761
 -2.376603   0.924806   3.970890  -1.580309   1.416712  -0.459526   2.658364  -0.369195   0.473582  -0.161161  -0.519736   0.429048   0.122875  -0.688944   0.080105  -1.120989  -0.265589  -0.325505  -4.343548  -0.576324   2.637588   0.067229   7.174155   0.126327  -0.139240  -2.650915  -2.283669  -1.098768  -0.057366  -0.199120  -0.608767  -1.880245  -3.851289   0.100606  -6.930731  -0.016813  -0.010522   3.167074   2.338372  -0.785708  -1.746173  -0.294526   5.617399   0.016146  -0.008095  -3.405163  -0.196827   0.397496  -0.474296  -0.000675   0.000947  -0.831908  -0.052464   1.363700   6.822280  -0.021680   0.040550  -4.886929   0.395781  -0.170315   0.461602  -0.001293   0.003161
 -2.376563   0.923778   3.967815  -2.526006   2.269331  -0.660975   3.995425  -0.629555   0.725714  -0.064717  -0.889144   0.645030   0.214374  -0.999786   0.150095  -1.633492  -0.103175  -0.066892  -6.312528  -0.655906   4.131761   0.099183  10.749282   0.163269  -0.237876  -2.936248  -2.774374  -1.598364  -0.521644  -0.796676  -0.963075  -3.091492  -5.989622   0.159595 -10.585697  -0.019603  -0.011850   3.493151   2.715219  -1.226647  -2.552222  -0.785758   8.340348   0.028090  -0.008433  -4.929188  -0.301481   0.566743  -0.683427  -0.001430   0.000920  -1.091555  -0.050119   2.377130  10.459384  -0.035680   0.065352  -7.079001   0.591944  -0.233495   0.659148  -0.002241   0.004446
 -2.376540   0.922094   3.964592  -3.466127   3.105389  -0.826899   5.283636  -0.904762   0.962091   0.059426  -1.275170   0.839210   0.291409  -1.289453   0.221391  -2.111773   0.189734   0.350747  -8.149883  -0.673494   5.661550   0.122848  14.130760   0.185971  -0.324998  -2.918998  -2.947830  -2.070441  -1.136620  -1.556792  -1.349373  -4.349897  -8.142760   0.214565 -14.293239  -0.020243  -0.004048   3.460787   2.741815  -1.745373  -3.298436  -1.466576  10.857476   0.039503  -0.009671  -6.352140  -0.406137   0.720254  -0.879190  -0.002241   0.000871  -1.269364  -0.044958   3.543440  14.009675  -0.048383   0.087605  -9.122658   0.781458  -0.282942   0.845262  -0.003190   0.005417
 -2.376522   0.919647   3.961343  -4.374699   3.896576  -0.959704   6.513793  -1.184596   1.177516   0.196305  -1.663815   1.007882   0.354263  -1.559603   0.290342  -2.559448   0.560474   0.860062  -9.862771  -0.668286   7.184399   0.137563  17.313268   0.198067  -0.404745  -2.742627  -2.908173  -2.519343  -1.834561  -2.406844  -1.763050  -5.605953 -10.264836   0.262682 -18.034180  -0.019100   0.007686   3.219592   2.535330  -2.346464  -3.982938  -2.301124  13.171091   0.049154  -0.012093  -7.681474  -0.509767   0.859755  -1.063837  -0.003015   0.000859  -1.357953  -0.041639   4.827101  17.360640  -0.058491   0.105509 -11.028319   0.962602  -0.320124   1.018228  -0.004035   0.006066
 -2.376497   0.916365   3.958143  -5.241807   4.637105  -1.063551   7.687201  -1.467053   1.370802   0.341187  -2.051122   1.150136   0.405613  -1.811731   0.355559  -2.979604   0.971064   1.412360 -11.458496  -0.663065   8.668909   0.143978  20.299910   0.202315  -0.480046  -2.481287  -2.735724  -2.948170  -2.572433  -3.298235  -2.198417  -6.830240 -12.327431   0.302994 -21.796839  -0.016378   0.019076   2.857638   2.178678  -3.021298  -4.604206  -3.255337  15.293949   0.056489  -0.015237  -8.923451  -0.611405   0.986602  -1.237325  -0.003686   0.000881  -1.372472  -0.043011   6.197333  20.509047  -0.065844   0.119196 -12.806760   1.134393  -0.346761   1.174736  -0.004697   0.006409
 -2.376364   0.911973   3.954571  -5.643973   5.183596  -1.132554   8.623400  -1.650519   1.482383   0.154463  -2.377936   1.305816   0.321858  -2.208577   0.419975  -3.330967   1.230572   1.826644 -13.151354  -0.609573   9.987314   0.137081  23.414333   0.213590  -0.567955  -2.409854  -2.155301  -3.087354  -3.138101  -3.822994  -2.660774  -8.166254 -14.502367   0.331821 -25.595319  -0.005664   0.014046   2.389399   1.437554  -4.494403  -5.491350  -4.361590  17.929060   0.063637  -0.031624  -9.258133  -0.909304   1.224191  -1.325741  -0.003522   0.001372  -1.712731  -0.043128   7.481629  22.986070  -0.066846   0.120085 -14.435946   1.367798  -0.575478   1.459363  -0.005827   0.007729
 -2.376182   0.906580   3.951156  -5.987070   5.704575  -1.193011   9.513839  -1.837203   1.592708  -0.057061  -2.693559   1.447960   0.222487  -2.585876   0.482758  -3.668188   1.497098   2.133840 -14.740550  -0.562615  11.164297   0.121453  26.341624   0.218423  -0.652893  -2.234818  -1.643975  -3.222637  -3.692298  -4.254218  -3.139008  -9.419264 -16.517340   0.348564 -29.403301   0.004140   0.009340   1.884440   0.672149  -5.978571  -6.309868  -5.491312  20.424049   0.066590  -0.044382  -9.553732  -1.195704   1.442469  -1.323877  -0.002807   0.001081  -2.043237  -0.064261   8.738188  25.203676  -0.065361   0.118106 -15.962711   1.589808  -0.781935   1.705174  -0.006434   0.008367
 -2.375978   0.900246   3.947977  -6.300580   6.200843  -1.247023  10.354082  -2.019299   1.698971  -0.258160  -2.997154   1.573712   0.128621  -2.938738   0.542525  -3.990094   1.763679   2.361396 -16.230655  -0.527258  12.222777   0.101655  29.082743   0.218097  -0.730472  -2.010090  -1.240881  -3.361326  -4.233342  -4.618822  -3.631220 -10.591418 -18.386934   0.356866 -33.217701   0.012702   0.003605   1.369639  -0.020364  -7.411585  -7.039080  -6.616029  22.744269   0.066285  -0.053021  -9.829052  -1.464832   1.644008  -1.320816  -0.002228   0.000840  -2.351209  -0.097413   9.963242  27.253020  -0.062535   0.114668 -17.388959   1.801305  -0.967836   1.926229  -0.006720   0.008607
 -2.375707   0.893171   3.944941  -6.609396   6.630989  -1.301969  11.175192  -2.178163   1.809127  -0.436126  -3.275511   1.683252   0.040774  -3.267716   0.598028  -4.299199   2.033995   2.532331 -17.629003  -0.498319  13.181751   0.081059  31.648453   0.213566  -0.802067  -1.753002  -0.938101  -3.501654  -4.755859  -4.941740  -4.131201 -11.683657 -20.131585   0.360367 -37.035921   0.021172  -0.003598   0.858911  -0.632809  -8.782413  -7.684191  -7.714542  24.900252   0.063550  -0.059011 -10.085234  -1.716817   1.830444  -1.314894  -0.001750   0.000627  -2.697613  -0.186554  11.000667  29.013980  -0.056564   0.106645 -18.905415   1.880614  -1.218584  -0.105861   0.004897  -0.005773
 -2.375385   0.886980   3.942130  -7.039455   6.748073  -1.527383  12.080950  -2.207089   2.028597  -0.521085  -3.446801   1.832340  -0.040553  -3.571144   0.653695  -4.597538   2.344264   2.743908 -18.939914  -0.461266  14.097186   0.064234  34.050280   0.205543  -0.866251  -1.447607  -0.718986  -3.619620  -5.232828  -5.328332  -4.620949 -12.676629 -21.805248   0.367549 -40.844614   0.033176  -0.010089   0.400349  -1.163112 -10.201009  -8.687966  -8.124373  27.836747   0.044507  -0.080138  -9.941410  -2.078971   2.309803  -1.323226  -0.001380   0.000614  -2.905615  -0.247523  11.990449  30.584754  -0.049824   0.093870 -20.291276   1.939995  -1.444943  -1.600795   0.009673  -0.009225
